<?xml version="1.0" encoding="utf-8"?>
<!-- Generator: Adobe Illustrator 27.5.0, SVG Export Plug-In . SVG Version: 6.00 Build 0)  -->
<svg version="1.1" id="PRINT" xmlns="http://www.w3.org/2000/svg" xmlns:xlink="http://www.w3.org/1999/xlink" x="0px" y="0px"
	 viewBox="0 0 300.615 423.692" style="enable-background:new 0 0 300.615 423.692;" xml:space="preserve">
<g>
	<defs>
		<rect id="SVGID_1_" x="-8.923" y="-8.692" width="318.462" height="441.077"/>
	</defs>
	<clipPath id="SVGID_00000052790941354645115400000014821307395125540778_">
		<use xlink:href="#SVGID_1_"  style="overflow:visible;"/>
	</clipPath>
	
		<rect x="-8.615" y="5.177" style="clip-path:url(#SVGID_00000052790941354645115400000014821307395125540778_);fill:#FFFFFF;" width="317.846" height="423.846"/>
	
		<rect x="-8.923" y="-8.692" style="clip-path:url(#SVGID_00000052790941354645115400000014821307395125540778_);fill:#FFAA00;" width="318.462" height="82.145"/>
	
		<rect x="-8.923" y="418.27" style="clip-path:url(#SVGID_00000052790941354645115400000014821307395125540778_);fill:#221B17;" width="318.462" height="73.53"/>
	<g style="clip-path:url(#SVGID_00000052790941354645115400000014821307395125540778_);">
		<g>
			<text transform="matrix(1 0 0 1 134.897 38.2559)" style="fill:#221B17; font-family:'Raleway-SemiBold'; font-size:17.1029px;">SARAH NEWMAN</text>
		</g>
	</g>
	<g style="clip-path:url(#SVGID_00000052790941354645115400000014821307395125540778_);">
		
			<text transform="matrix(1 0 0 1 134.897 49.4658)" style="fill:#FFFFFF; font-family:'Raleway-Medium'; font-size:7.6599px; letter-spacing:1;">PHOTOGRAPHER</text>
	</g>
	<g style="clip-path:url(#SVGID_00000052790941354645115400000014821307395125540778_);">
		<defs>
			<path id="SVGID_00000127760302169494783170000001496183487528365502_" d="M125.325,92.603
				c-1.093,63.977-96.257,63.967-97.34-0.002C29.077,28.626,124.242,28.636,125.325,92.603z"/>
		</defs>
		<clipPath id="SVGID_00000074432991526650761070000016711886708202807202_">
			<use xlink:href="#SVGID_00000127760302169494783170000001496183487528365502_"  style="overflow:visible;"/>
		</clipPath>
	</g>
	
		<path style="clip-path:url(#SVGID_00000052790941354645115400000014821307395125540778_);fill:none;stroke:#FFFFFF;stroke-width:6.5005;stroke-miterlimit:10;" d="
		M127.77,92.603c-1.147,67.19-101.092,67.18-102.23-0.002C26.688,25.412,126.632,25.423,127.77,92.603z"/>
	<g style="clip-path:url(#SVGID_00000052790941354645115400000014821307395125540778_);">
		<text transform="matrix(1 0 0 1 38.6822 340.2886)" style="fill:#2F3A40; font-family:'Raleway-SemiBold'; font-size:7.1942px;">SOFTWARE</text>
	</g>
	<g style="clip-path:url(#SVGID_00000052790941354645115400000014821307395125540778_);">
		<text transform="matrix(1 0 0 1 38.7055 353.6597)" style="fill:#2F3A40; font-family:'Raleway-Regular'; font-size:4.4963px;">PHOTOSHOP</text>
	</g>
	<g style="clip-path:url(#SVGID_00000052790941354645115400000014821307395125540778_);">
		<text transform="matrix(1 0 0 1 38.0121 366.5259)" style="fill:#2F3A40; font-family:'Raleway-Regular'; font-size:4.4963px;">ILLUSTRATOR</text>
	</g>
	<g style="clip-path:url(#SVGID_00000052790941354645115400000014821307395125540778_);">
		<text transform="matrix(1 0 0 1 37.9093 379.3911)" style="fill:#2F3A40; font-family:'Raleway-Regular'; font-size:4.4963px;">AFTER EFFECTS</text>
	</g>
	<g style="clip-path:url(#SVGID_00000052790941354645115400000014821307395125540778_);">
		<text transform="matrix(1 0 0 1 38.0211 392.2583)" style="fill:#2F3A40; font-family:'Raleway-Regular'; font-size:4.4963px;">CINEMA 4D</text>
	</g>
	<g style="clip-path:url(#SVGID_00000052790941354645115400000014821307395125540778_);">
		<text transform="matrix(1 0 0 1 38.4703 277.9966)" style="fill:#2F3A40; font-family:'Raleway-SemiBold'; font-size:7.1942px;">INTEREST</text>
	</g>
	<g style="clip-path:url(#SVGID_00000052790941354645115400000014821307395125540778_);">
		<text transform="matrix(1 0 0 1 38.6441 167.2359)" style="fill:#2F3A40; font-family:'Raleway-SemiBold'; font-size:7.1942px;">ABOUT ME</text>
	</g>
	<g style="clip-path:url(#SVGID_00000052790941354645115400000014821307395125540778_);">
		<rect x="38.195" y="173.829" style="fill:none;" width="97.767" height="34.311"/>
		<text transform="matrix(1 0 0 1 38.1954 177.1113)"><tspan x="0" y="0" style="fill:#2F3A40; font-family:'Raleway-Regular'; font-size:4.4963px;">Lorem ipsum dolor sit amet, consectetuer </tspan><tspan x="0" y="7.194" style="fill:#2F3A40; font-family:'Raleway-Regular'; font-size:4.4963px;">adipiscing elit, sed diam nonummy nibh </tspan><tspan x="0" y="14.389" style="fill:#2F3A40; font-family:'Raleway-Regular'; font-size:4.4963px;">euismod tincidunt ut laoreet dolore magna </tspan><tspan x="0" y="21.583" style="fill:#2F3A40; font-family:'Raleway-Regular'; font-size:4.4963px;">aliquam erat volutpat.</tspan></text>
	</g>
	<g style="clip-path:url(#SVGID_00000052790941354645115400000014821307395125540778_);">
		<text transform="matrix(1 0 0 1 177.168 326.3364)" style="fill:#2F3A40; font-family:'Raleway-SemiBold'; font-size:7.1942px;">LANGUAJES</text>
	</g>
	<g style="clip-path:url(#SVGID_00000052790941354645115400000014821307395125540778_);">
		<text transform="matrix(1 0 0 1 178.6304 337.6772)" style="fill:#2F3A40; font-family:'Raleway-Regular'; font-size:4.4963px;">ENGLISH</text>
	</g>
	<g style="clip-path:url(#SVGID_00000052790941354645115400000014821307395125540778_);">
		<text transform="matrix(1 0 0 1 178.6436 346.937)" style="fill:#2F3A40; font-family:'Raleway-Regular'; font-size:4.4963px;">SPANISH</text>
	</g>
	<g style="clip-path:url(#SVGID_00000052790941354645115400000014821307395125540778_);">
		<text transform="matrix(1 0 0 1 177.3922 200.9561)" style="fill:#2F3A40; font-family:'Raleway-SemiBold'; font-size:7.1942px;">AWARDS</text>
	</g>
	<g style="clip-path:url(#SVGID_00000052790941354645115400000014821307395125540778_);">
		<text transform="matrix(1 0 0 1 178.0572 93.1118)" style="fill:#2F3A40; font-family:'Raleway-SemiBold'; font-size:7.1942px;">WORK EXPERIENCE</text>
	</g>
	<g style="clip-path:url(#SVGID_00000052790941354645115400000014821307395125540778_);">
		<text transform="matrix(1 0 0 1 179.3028 263.98)" style="fill:#2F3A40; font-family:'Raleway-SemiBold'; font-size:7.1942px;">EDUCATION</text>
	</g>
	<g style="clip-path:url(#SVGID_00000052790941354645115400000014821307395125540778_);">
		<text transform="matrix(1 0 0 1 176.9283 375.0708)" style="fill:#2F3A40; font-family:'Raleway-SemiBold'; font-size:7.1942px;">REFERENCES</text>
	</g>
	<g style="clip-path:url(#SVGID_00000052790941354645115400000014821307395125540778_);">
		<rect x="179.054" y="217.842" style="fill:none;" width="97.767" height="21.583"/>
		<text transform="matrix(1 0 0 1 179.0538 221.1236)"><tspan x="0" y="0" style="fill:#2F3A40; font-family:'Raleway-Regular'; font-size:4.4963px;">Lorem ipsum dolor sit amet, consectetuer </tspan><tspan x="0" y="7.194" style="fill:#2F3A40; font-family:'Raleway-Regular'; font-size:4.4963px;">adipiscing elit, sed diam nonummy nibh </tspan><tspan x="0" y="14.389" style="fill:#2F3A40; font-family:'Raleway-Regular'; font-size:4.4963px;">euismod tincidunt.</tspan></text>
	</g>
	<g style="clip-path:url(#SVGID_00000052790941354645115400000014821307395125540778_);">
		<rect x="179.054" y="381.608" style="fill:none;" width="97.767" height="13.914"/>
		<text transform="matrix(1 0 0 1 179.0538 384.8901)"><tspan x="0" y="0" style="fill:#2F3A40; font-family:'Raleway-Regular'; font-size:4.4963px;">Lorem ipsum dolor sit amet, consectetuer </tspan><tspan x="0" y="7.194" style="fill:#2F3A40; font-family:'Raleway-Regular'; font-size:4.4963px;">adipiscing elit, sed diam nonummy.</tspan></text>
	</g>
	<g style="clip-path:url(#SVGID_00000052790941354645115400000014821307395125540778_);">
		<rect x="192.582" y="110.451" style="fill:none;" width="80.186" height="21.582"/>
		<text transform="matrix(1 0 0 1 192.5811 113.7329)"><tspan x="0" y="0" style="fill:#2F3A40; font-family:'Raleway-Regular'; font-size:4.4963px;">Lorem ipsum dolor sit amet, </tspan><tspan x="0" y="7.194" style="fill:#2F3A40; font-family:'Raleway-Regular'; font-size:4.4963px;">consectetuer adipiscing elit.</tspan></text>
	</g>
	<g style="clip-path:url(#SVGID_00000052790941354645115400000014821307395125540778_);">
		<rect x="181.929" y="101.596" style="fill:none;" width="55.78" height="6.272"/>
		<text transform="matrix(1 0 0 1 186.6182 104.8784)"><tspan x="0" y="0" style="fill:#FFAA00; font-family:'Raleway-Regular'; font-size:4.4963px;">(2016-2018)</tspan><tspan x="28.674" y="0" style="fill:#2F3A40; font-family:'Raleway-Regular'; font-size:4.4963px;">  WORK 1</tspan></text>
	</g>
	<g style="clip-path:url(#SVGID_00000052790941354645115400000014821307395125540778_);">
		<rect x="184.581" y="156.619" style="fill:none;" width="53.717" height="4.658"/>
		<text transform="matrix(1 0 0 1 186.5948 159.9009)"><tspan x="0" y="0" style="fill:#FFAA00; font-family:'Raleway-Regular'; font-size:4.4963px;">(2020-2021)</tspan><tspan x="28.809" y="0" style="fill:#2F3A40; font-family:'Raleway-Regular'; font-size:4.4963px;">  WORK 3</tspan></text>
	</g>
	<g style="clip-path:url(#SVGID_00000052790941354645115400000014821307395125540778_);">
		<rect x="192.582" y="137.758" style="fill:none;" width="80.186" height="21.583"/>
		<text transform="matrix(1 0 0 1 192.5811 141.0401)"><tspan x="0" y="0" style="fill:#2F3A40; font-family:'Raleway-Regular'; font-size:4.4963px;">Lorem ipsum dolor sit amet, </tspan><tspan x="0" y="7.194" style="fill:#2F3A40; font-family:'Raleway-Regular'; font-size:4.4963px;">consectetuer adipiscing elit.</tspan></text>
	</g>
	<g style="clip-path:url(#SVGID_00000052790941354645115400000014821307395125540778_);">
		<rect x="192.582" y="166.629" style="fill:none;" width="80.186" height="21.583"/>
		<text transform="matrix(1 0 0 1 192.5811 169.9121)"><tspan x="0" y="0" style="fill:#2F3A40; font-family:'Raleway-Regular'; font-size:4.4963px;">Lorem ipsum dolor sit amet, </tspan><tspan x="0" y="7.194" style="fill:#2F3A40; font-family:'Raleway-Regular'; font-size:4.4963px;">consectetuer adipiscing elit.</tspan></text>
	</g>
	<g style="clip-path:url(#SVGID_00000052790941354645115400000014821307395125540778_);">
		<rect x="183.108" y="129.22" style="fill:none;" width="54.601" height="5.955"/>
		<text transform="matrix(1 0 0 1 186.2764 132.502)"><tspan x="0" y="0" style="fill:#FFAA00; font-family:'Raleway-Regular'; font-size:4.4963px;">(2018-2019)</tspan><tspan x="28.597" y="0" style="fill:#2F3A40; font-family:'Raleway-Regular'; font-size:4.4963px;">  WORK 2</tspan></text>
	</g>
	<g style="clip-path:url(#SVGID_00000052790941354645115400000014821307395125540778_);">
		<rect x="179.054" y="279.865" style="fill:none;" width="97.767" height="20.317"/>
		<text transform="matrix(1 0 0 1 179.0538 283.1479)"><tspan x="0" y="0" style="fill:#2F3A40; font-family:'Raleway-Regular'; font-size:4.4963px;">Lorem ipsum dolor sit amet, consectetuer </tspan><tspan x="0" y="7.194" style="fill:#2F3A40; font-family:'Raleway-Regular'; font-size:4.4963px;">adipiscing elit, sed diam nonummy nibh </tspan><tspan x="0" y="14.389" style="fill:#2F3A40; font-family:'Raleway-Regular'; font-size:4.4963px;">euismod tincidunt.</tspan></text>
	</g>
	<g style="clip-path:url(#SVGID_00000052790941354645115400000014821307395125540778_);">
		<rect x="177.786" y="271.011" style="fill:none;" width="98.505" height="6.272"/>
		<text transform="matrix(1 0 0 1 179.5264 274.2935)"><tspan x="0" y="0" style="fill:#FFAA00; font-family:'Raleway-Regular'; font-size:4.4963px;">(2015-2018) </tspan><tspan x="30.009" y="0" style="fill:#2F3A40; font-family:'Raleway-Regular'; font-size:4.4963px;"> SAMPLE TEXT GOES HERE</tspan></text>
	</g>
	<g style="clip-path:url(#SVGID_00000052790941354645115400000014821307395125540778_);">
		<rect x="177.657" y="207.743" style="fill:none;" width="57.547" height="6.272"/>
		<text transform="matrix(1 0 0 1 180.3448 211.0254)"><tspan x="0" y="0" style="fill:#FFA500; font-family:'Raleway-Regular'; font-size:4.4963px;">(2019)</tspan><tspan x="14.766" y="0" style="fill:#2F3A40; font-family:'Raleway-Regular'; font-size:4.4963px;"> AWARDS NAME</tspan></text>
	</g>
	<path style="clip-path:url(#SVGID_00000052790941354645115400000014821307395125540778_);fill:#2F3A40;" d="M85.312,351.417
		c0.026,1.758-2.736,1.758-2.71,0C82.576,349.659,85.338,349.659,85.312,351.417z"/>
	<path style="clip-path:url(#SVGID_00000052790941354645115400000014821307395125540778_);fill:#FFA500;" d="M91.887,351.417
		c0.026,1.758-2.736,1.758-2.71,0C89.151,349.659,91.914,349.659,91.887,351.417z"/>
	<path style="clip-path:url(#SVGID_00000052790941354645115400000014821307395125540778_);fill:#FFA500;" d="M98.865,351.489
		c0.026,1.758-2.736,1.758-2.711,0C96.129,349.731,98.891,349.731,98.865,351.489z"/>
	<path style="clip-path:url(#SVGID_00000052790941354645115400000014821307395125540778_);fill:#FFA500;" d="M106.043,351.489
		c0.026,1.758-2.737,1.758-2.711,0C103.306,349.731,106.069,349.731,106.043,351.489z"/>
	<path style="clip-path:url(#SVGID_00000052790941354645115400000014821307395125540778_);fill:#FFA500;" d="M114.426,351.489
		c0.026,1.758-2.737,1.758-2.71,0C111.689,349.731,114.451,349.731,114.426,351.489z"/>
	<path style="clip-path:url(#SVGID_00000052790941354645115400000014821307395125540778_);fill:#2F3A40;" d="M85.312,364.819
		c0.026,1.758-2.736,1.758-2.71,0C82.576,363.061,85.338,363.061,85.312,364.819z"/>
	<path style="clip-path:url(#SVGID_00000052790941354645115400000014821307395125540778_);fill:#2F3A40;" d="M91.887,364.819
		c0.026,1.758-2.736,1.758-2.71,0C89.151,363.061,91.914,363.061,91.887,364.819z"/>
	<path style="clip-path:url(#SVGID_00000052790941354645115400000014821307395125540778_);fill:#FFA500;" d="M98.865,364.891
		c0.026,1.758-2.736,1.759-2.711,0C96.129,363.133,98.891,363.133,98.865,364.891z"/>
	<path style="clip-path:url(#SVGID_00000052790941354645115400000014821307395125540778_);fill:#FFA500;" d="M106.043,364.891
		c0.026,1.758-2.737,1.759-2.711,0C103.306,363.133,106.069,363.133,106.043,364.891z"/>
	<path style="clip-path:url(#SVGID_00000052790941354645115400000014821307395125540778_);fill:#FFA500;" d="M114.426,364.891
		c0.026,1.758-2.737,1.759-2.71,0C111.689,363.133,114.451,363.133,114.426,364.891z"/>
	<path style="clip-path:url(#SVGID_00000052790941354645115400000014821307395125540778_);fill:#2F3A40;" d="M85.312,377.318
		c0.026,1.758-2.736,1.758-2.71,0C82.576,375.56,85.338,375.56,85.312,377.318z"/>
	<path style="clip-path:url(#SVGID_00000052790941354645115400000014821307395125540778_);fill:#2F3A40;" d="M91.887,377.318
		c0.026,1.758-2.736,1.758-2.71,0C89.151,375.56,91.914,375.56,91.887,377.318z"/>
	<path style="clip-path:url(#SVGID_00000052790941354645115400000014821307395125540778_);fill:#2F3A40;" d="M98.865,377.39
		c0.026,1.758-2.736,1.758-2.711,0C96.129,375.632,98.891,375.632,98.865,377.39z"/>
	<path style="clip-path:url(#SVGID_00000052790941354645115400000014821307395125540778_);fill:#2F3A40;" d="M106.043,377.39
		c0.026,1.758-2.737,1.758-2.711,0C103.306,375.632,106.069,375.632,106.043,377.39z"/>
	<path style="clip-path:url(#SVGID_00000052790941354645115400000014821307395125540778_);fill:#FFA500;" d="M114.426,377.39
		c0.026,1.758-2.737,1.758-2.71,0C111.689,375.632,114.451,375.632,114.426,377.39z"/>
	<path style="clip-path:url(#SVGID_00000052790941354645115400000014821307395125540778_);fill:#2F3A40;" d="M85.312,390.269
		c0.026,1.758-2.736,1.758-2.71,0C82.576,388.51,85.338,388.51,85.312,390.269z"/>
	<path style="clip-path:url(#SVGID_00000052790941354645115400000014821307395125540778_);fill:#2F3A40;" d="M91.887,390.269
		c0.026,1.758-2.736,1.758-2.71,0C89.151,388.51,91.914,388.51,91.887,390.269z"/>
	<path style="clip-path:url(#SVGID_00000052790941354645115400000014821307395125540778_);fill:#FFA500;" d="M98.865,390.341
		c0.026,1.758-2.736,1.758-2.711,0C96.129,388.582,98.891,388.582,98.865,390.341z"/>
	<path style="clip-path:url(#SVGID_00000052790941354645115400000014821307395125540778_);fill:#FFA500;" d="M106.043,390.341
		c0.026,1.758-2.737,1.758-2.711,0C103.306,388.582,106.069,388.582,106.043,390.341z"/>
	<path style="clip-path:url(#SVGID_00000052790941354645115400000014821307395125540778_);fill:#FFA500;" d="M114.426,390.341
		c0.026,1.758-2.737,1.758-2.71,0C111.689,388.582,114.451,388.582,114.426,390.341z"/>
	
		<rect x="221.749" y="334.877" style="clip-path:url(#SVGID_00000052790941354645115400000014821307395125540778_);fill:#FFAA00;" width="42.165" height="2.209"/>
	
		<rect x="249.859" y="334.877" style="clip-path:url(#SVGID_00000052790941354645115400000014821307395125540778_);fill:#2F3A40;" width="14.055" height="2.209"/>
	
		<rect x="221.749" y="343.912" style="clip-path:url(#SVGID_00000052790941354645115400000014821307395125540778_);fill:#FFAA00;" width="42.165" height="2.209"/>
	
		<rect x="239.845" y="343.912" style="clip-path:url(#SVGID_00000052790941354645115400000014821307395125540778_);fill:#2F3A40;" width="24.069" height="2.209"/>
	<g style="clip-path:url(#SVGID_00000052790941354645115400000014821307395125540778_);">
		<g>
			<g>
				<path style="fill:#2F3A40;" d="M46.703,213.733c0.086-5.887-9.162-5.888-9.076,0c-0.003,2.532,2.084,4.586,4.618,4.536v-3.531
					H41.27v-1.136h0.975c-0.294-1.72,0.769-2.664,2.331-2.29v1.014c-1.152-0.147-1.236,0.288-1.157,1.274h1.126l-0.147,1.136h-0.978
					v3.359C45.315,217.551,46.703,215.805,46.703,213.733z"/>
			</g>
			<g>
				<g>
					<path style="fill:#2F3A40;" d="M82.459,209.195c-5.887-0.086-5.887,9.162,0,9.076
						C88.346,218.356,88.346,209.109,82.459,209.195z M84.531,212.733c0.061,1.442-0.989,3.089-2.961,3.098h0
						c-0.588,0-1.136-0.172-1.597-0.468c0.553,0.069,1.13-0.102,1.542-0.432c-0.456-0.008-0.84-0.309-0.973-0.723
						c0.153,0.03,0.322,0.023,0.47-0.018c-0.481-0.096-0.843-0.526-0.836-1.034c0.141,0.078,0.301,0.125,0.472,0.13
						c-0.441-0.272-0.604-0.941-0.322-1.391c0.514,0.63,1.281,1.045,2.147,1.088c-0.27-1.008,1.097-1.723,1.775-0.95
						c0.237-0.047,0.46-0.134,0.661-0.253c-0.078,0.243-0.243,0.447-0.458,0.576c0.211-0.025,0.412-0.081,0.598-0.164
						C84.911,212.403,84.734,212.586,84.531,212.733z"/>
				</g>
			</g>
			<g>
				<g>
					<g>
						<g>
							<path style="fill:#2F3A40;" d="M63.103,213.158c-0.507-0.771-1.807-0.353-1.772,0.575
								C61.395,215.442,64.048,214.577,63.103,213.158z"/>
						</g>
					</g>
				</g>
				<g>
					<g>
						<g>
							<path style="fill:#2F3A40;" d="M63.719,213.166c0.937,2.676-3.76,2.678-2.822,0H60.04c-0.365,4.187,0.909,2.518,3.978,2.836
								c0.991,0.049,0.415-2.335,0.56-2.836H63.719z"/>
						</g>
					</g>
				</g>
				<g>
					<g>
						<g>
							<path style="fill:#2F3A40;" d="M64.322,211.592H63.5v0.943h0.936c0-0.088,0-0.887,0-0.95L64.322,211.592z"/>
						</g>
					</g>
				</g>
				<g>
					<g>
						<g>
							<path style="fill:#2F3A40;" d="M64.535,209.266c-1.892,0.213-6.768-0.976-6.693,2.241c0.214,1.892-0.98,6.767,2.24,6.693
								c1.893-0.213,6.775,0.978,6.7-2.24C66.573,214.064,67.752,209.192,64.535,209.266z M65.074,213.158L65.074,213.158
								c-0.128,0.9,0.516,3.394-1.056,3.34c-0.937-0.234-4.563,0.728-4.474-1.056c0.258-1.199-0.785-4.34,1.056-4.474
								C62.444,211.189,65.676,209.968,65.074,213.158L65.074,213.158z"/>
						</g>
					</g>
				</g>
			</g>
		</g>
	</g>
	<g style="clip-path:url(#SVGID_00000052790941354645115400000014821307395125540778_);">
		<text transform="matrix(1 0 0 1 50.9322 231.4635)" style="fill:#2F3A40; font-family:'Raleway-Regular'; font-size:5.7744px;">+34 123 456 789</text>
	</g>
	<g style="clip-path:url(#SVGID_00000052790941354645115400000014821307395125540778_);">
		<text transform="matrix(1 0 0 1 52.129 240.067)" style="fill:#2F3A40; font-family:'Raleway-Regular'; font-size:5.7449px;">www.paulasmith.com</text>
	</g>
	
		<rect x="39.731" y="236.962" style="clip-path:url(#SVGID_00000052790941354645115400000014821307395125540778_);fill:#2F3A40;" width="6.962" height="4.923"/>
	<g style="clip-path:url(#SVGID_00000052790941354645115400000014821307395125540778_);">
		<g>
			<g>
				<path style="fill:#2F3A40;" d="M45.112,230.797c-0.513-0.579-1.112,0.063-1.476,0.465c-0.735-0.366-1.5-1.113-1.88-1.88
					c1.198-0.753,0.49-1.637-0.353-2.31c-0.703-0.686-1.715,0.519-1.828,1.2c0.111,2.425,3.365,6.13,5.898,4.83
					C46.636,232.344,45.937,231.457,45.112,230.797z"/>
			</g>
		</g>
	</g>
	<g style="clip-path:url(#SVGID_00000052790941354645115400000014821307395125540778_);">
		<g>
			<g>
				<g>
					<path style="fill:#FFFFFF;" d="M38.958,240.68c0.108,0.233-0.247,1.759,0.254,1.717c0.085-0.006,7.971,0.01,8.048-0.005
						c0.439,0.218,0.107-5.586,0.204-5.676c0-0.14-0.114-0.254-0.254-0.254h-7.998c-0.493-0.053-0.371,4.152-0.254,4.361
						c0.757,1.356,0.553-3.241,0.508-3.544l2.257,1.999c-0.032,0.016-2.227,2.227-2.257,2.252c-0.092-0.231,0.241-1.973-0.254-1.923
						c-0.299-0.005-0.257,0.364-0.254,0.564 M39.882,236.97h7.074v4.56l0,0c-0.004-0.004-2.224-2.225-2.228-2.228l1.672-1.418
						c0.254-0.209-0.08-0.604-0.329-0.387l-2.857,2.424 M42.049,239.666c0.018-0.018,0.033-0.038,0.044-0.06
						c1.132,1.104,1.099,1.097,2.25,0.023c0.017,0.036,2.227,2.227,2.254,2.26h-6.772L42.049,239.666z"/>
				</g>
			</g>
		</g>
	</g>
	
		<line style="clip-path:url(#SVGID_00000052790941354645115400000014821307395125540778_);fill:none;stroke:#FFAA00;stroke-width:0.7181;stroke-miterlimit:10;" x1="40.565" y1="256.995" x2="137.787" y2="256.995"/>
	
		<line style="clip-path:url(#SVGID_00000052790941354645115400000014821307395125540778_);fill:none;stroke:#FFAA00;stroke-width:0.7181;stroke-miterlimit:10;" x1="177.854" y1="185.503" x2="275.075" y2="185.503"/>
	
		<line style="clip-path:url(#SVGID_00000052790941354645115400000014821307395125540778_);fill:none;stroke:#FFAA00;stroke-width:0.7181;stroke-miterlimit:10;" x1="177.854" y1="245.505" x2="275.075" y2="245.505"/>
	
		<line style="clip-path:url(#SVGID_00000052790941354645115400000014821307395125540778_);fill:none;stroke:#FFAA00;stroke-width:0.7181;stroke-miterlimit:10;" x1="177.854" y1="309.141" x2="275.075" y2="309.141"/>
	
		<line style="clip-path:url(#SVGID_00000052790941354645115400000014821307395125540778_);fill:none;stroke:#FFAA00;stroke-width:0.7181;stroke-miterlimit:10;" x1="177.854" y1="360.109" x2="275.075" y2="360.109"/>
	
		<line style="clip-path:url(#SVGID_00000052790941354645115400000014821307395125540778_);fill:none;stroke:#FFAA00;stroke-width:0.7181;stroke-miterlimit:10;" x1="40.565" y1="325.05" x2="137.787" y2="325.05"/>
	
		<line style="clip-path:url(#SVGID_00000052790941354645115400000014821307395125540778_);fill:none;stroke:#2F3A40;stroke-width:0.7181;stroke-miterlimit:10;" x1="150.308" y1="80.033" x2="150.308" y2="411.175"/>
	<path style="clip-path:url(#SVGID_00000052790941354645115400000014821307395125540778_);fill:#2F3A40;" d="M34.379,165.126
		c0.05,3.44-5.354,3.44-5.303,0C29.025,161.686,34.429,161.686,34.379,165.126z"/>
	<path style="clip-path:url(#SVGID_00000052790941354645115400000014821307395125540778_);fill:#2F3A40;" d="M172.845,90.393
		c0.05,3.44-5.354,3.44-5.303,0C167.492,86.953,172.896,86.953,172.845,90.393z"/>
	<path style="clip-path:url(#SVGID_00000052790941354645115400000014821307395125540778_);fill:#2F3A40;" d="M172.845,198.221
		c0.05,3.44-5.354,3.44-5.303,0C167.492,194.78,172.896,194.78,172.845,198.221z"/>
	<path style="clip-path:url(#SVGID_00000052790941354645115400000014821307395125540778_);fill:#2F3A40;" d="M172.845,261.562
		c0.05,3.44-5.354,3.44-5.303,0C167.492,258.122,172.896,258.121,172.845,261.562z"/>
	<path style="clip-path:url(#SVGID_00000052790941354645115400000014821307395125540778_);fill:#2F3A40;" d="M172.845,323.872
		c0.05,3.44-5.354,3.44-5.303,0C167.492,320.432,172.896,320.432,172.845,323.872z"/>
	<path style="clip-path:url(#SVGID_00000052790941354645115400000014821307395125540778_);fill:#2F3A40;" d="M172.845,372.188
		c0.05,3.44-5.354,3.44-5.303,0C167.492,368.748,172.896,368.748,172.845,372.188z"/>
	<path style="clip-path:url(#SVGID_00000052790941354645115400000014821307395125540778_);fill:#2F3A40;" d="M34.379,274.942
		c0.05,3.44-5.354,3.44-5.303,0C29.025,271.502,34.429,271.502,34.379,274.942z"/>
	<path style="clip-path:url(#SVGID_00000052790941354645115400000014821307395125540778_);fill:#2F3A40;" d="M34.379,338.504
		c0.05,3.44-5.354,3.44-5.303,0C29.025,335.064,34.429,335.064,34.379,338.504z"/>
	<g style="clip-path:url(#SVGID_00000052790941354645115400000014821307395125540778_);">
		<g>
			<g>
				<path style="fill:#2F3A40;" d="M90.207,295.659l0.724-0.724l-2.897-2.897l-0.724,0.724l0.724,0.724l-0.724,0.724l-0.724-0.724
					l-0.724,0.724c0.144,0.144,2.974,2.974,2.897,2.897l0.724-0.724l-0.724-0.724l0.724-0.724L90.207,295.659z"/>
				<path style="fill:#2F3A40;" d="M79.292,302.139c1.993-0.029,1.994,3.103,0,3.073C77.299,305.242,77.299,302.11,79.292,302.139z"
					/>
				<path style="fill:#2F3A40;" d="M83.689,304.326l0.003-3.548l-1.503-1.503c-5.745-1.085-11.721,3.069-7.244,8.747
					C78.016,311.285,83.891,308.788,83.689,304.326z M77.119,308.022l-2.173-2.173l0.724-0.724l2.173,2.173L77.119,308.022z
					 M77.481,305.487c-2.381-2.316,1.306-6.004,3.622-3.622C83.484,304.181,79.797,307.869,77.481,305.487z"/>
				<path style="fill:#2F3A40;" d="M82.912,298.606l2.946-2.946l1.448,1.448l-2.946,2.946L82.912,298.606z"/>
			</g>
		</g>
		<g>
			<g>
				<g>
					<path style="fill:#2F3A40;" d="M59.653,294.006c-1.584-1.707-3.874,2.39-4.919,3.085l-7.177-2.375l-1.507,1.507l5.982,3.683
						l-3.027,3.154l-1.941-0.319l-1.362,1.362l2.854,0.999l1,2.854l1.362-1.362l-0.319-1.941l3.154-3.027l3.683,5.982l1.507-1.507
						l-2.375-7.177C57.271,297.871,61.354,295.597,59.653,294.006z"/>
				</g>
			</g>
		</g>
		<g>
			<g>
				<g>
					<path d="M105.009,294.318c-1.251-0.486-0.344,9.318-0.604,9.68c0.966,1.401,4.182,0.199,6.003,2.606
						C109.859,301.524,112.905,294.215,105.009,294.318z"/>
					<path d="M117.351,303.998c-0.262-0.412,0.653-10.125-0.603-9.68c-7.898-0.111-4.849,7.241-5.4,12.286
						C113.172,304.198,116.383,305.397,117.351,303.998z"/>
					<path d="M118.73,296.411h-0.439c-0.296,12.354,1.847,6.476-6.104,10.689c2.633-1.155,6.197,0.997,7.148-0.465
						C119.071,306.266,119.99,295.908,118.73,296.411z"/>
					<path d="M103.466,303.998v-7.587c-0.44-0.043-1.052,0.033-1.044,0.605c0,0,0,9.618,0,9.618
						c0.946,1.467,4.519-0.691,7.147,0.466C107.627,304.707,104,306.823,103.466,303.998z"/>
				</g>
			</g>
		</g>
	</g>
</g>
<circle style="fill:#FFAA00;" cx="76.923" cy="93.462" r="48.615"/>
</svg>
