<?xml version="1.0" encoding="utf-8"?>
<!-- Generator: Adobe Illustrator 27.5.0, SVG Export Plug-In . SVG Version: 6.00 Build 0)  -->
<svg version="1.1" id="PRINT" xmlns="http://www.w3.org/2000/svg" xmlns:xlink="http://www.w3.org/1999/xlink" x="0px" y="0px"
	 viewBox="0 0 419.53 595.28" style="enable-background:new 0 0 419.53 595.28;" xml:space="preserve">
<g>
	<g>
		<rect x="0.007" y="0.976" style="fill:#FFFFFF;" width="419.515" height="593.326"/>
		<g>
			<g>
				<rect x="-14.173" y="-14.173" style="fill:#570B1D;" width="447.876" height="98.59"/>
				<path style="fill:#FFFFFF;" d="M396.608,84.417H73.566c0.426-10.956,5.045-20.826,12.289-28.07
					c7.616-7.616,18.132-12.331,29.761-12.331h238.941C377.24,44.016,395.728,61.955,396.608,84.417z"/>
				
					<ellipse transform="matrix(0.9926 -0.1212 0.1212 0.9926 -8.8481 10.0274)" style="fill:#FFFFFF;" cx="78.034" cy="77.774" rx="62.05" ry="62.05"/>
			</g>
			<g>
				<rect x="-14.173" y="560.655" style="fill:#570B1D;" width="447.876" height="48.798"/>
				<rect x="-14.173" y="558.822" style="fill:#E4524D;" width="447.876" height="3.567"/>
			</g>
		</g>
		<g>
			<g>
				<g>
					<g>
						<g>
							<g>
								<g>
									<path style="fill:#570B1D;" d="M244.112,484.771h-0.12c-0.225,0-0.409-0.234-0.409-0.521v-8.171h-0.121
										c-0.099,0-0.191-0.039-0.261-0.109c-0.07-0.071-0.108-0.165-0.107-0.265c0-0.022,0-0.043,0-0.064
										c0-4.376-3.56-7.937-7.936-7.937c-4.376,0-7.936,3.56-7.936,7.937c0,0.022,0,0.043,0,0.064
										c0.001,0.1-0.037,0.195-0.107,0.266c-0.07,0.07-0.162,0.109-0.261,0.109h-0.12v8.171c0,0.288-0.184,0.521-0.409,0.521
										h-0.12c-0.226,0-0.409-0.234-0.409-0.521v-9.136c0-0.214,0.105-0.406,0.259-0.483c0.244-2.222,1.294-4.274,2.958-5.781
										c1.686-1.527,3.868-2.367,6.145-2.367c2.276,0,4.459,0.841,6.145,2.367c1.665,1.508,2.715,3.559,2.959,5.781
										c0.157,0.077,0.259,0.266,0.259,0.484v9.136C244.521,484.537,244.337,484.771,244.112,484.771z"/>
								</g>
							</g>
							<g>
								<g>
									<path style="fill:#570B1D;" d="M235.158,464.596c-5.991,0-10.848,4.857-10.848,10.848c0,0.041,0.001,0.081,0.001,0.121
										c0.003,0.181,0.151,0.327,0.332,0.327h0.645c0.185,0,0.333-0.151,0.331-0.337c-0.001-0.036-0.001-0.074-0.001-0.111
										c0-5.268,4.271-9.539,9.539-9.539c5.268,0,9.539,4.271,9.539,9.539c0,0.037,0,0.075-0.001,0.111
										c-0.003,0.185,0.146,0.337,0.331,0.337h0.645c0.181,0,0.33-0.145,0.332-0.327c0.001-0.041,0.001-0.081,0.001-0.121
										C246.006,469.452,241.149,464.596,235.158,464.596z"/>
								</g>
							</g>
							<g>
								<g>
									<path style="fill:#570B1D;" d="M226.266,480.63v2.954c0,1.561,1.257,2.828,2.814,2.847v-8.648
										C227.523,477.802,226.266,479.069,226.266,480.63z"/>
								</g>
							</g>
							<g>
								<g>
									<path style="fill:#E4524D;" d="M224.412,481.567v1.08c0,0.57,0.459,1.034,1.029,1.04v-3.16
										C224.871,480.534,224.412,480.997,224.412,481.567z"/>
								</g>
							</g>
							<g>
								<g>
									<path style="fill:#E4524D;" d="M244.878,480.527v3.16c0.569-0.007,1.028-0.47,1.028-1.04v-1.08
										C245.907,480.997,245.447,480.534,244.878,480.527z"/>
								</g>
							</g>
							<g>
								<g>
									<path style="fill:#570B1D;" d="M241.21,477.783v8.648c1.557-0.019,2.813-1.286,2.813-2.847v-2.954
										C244.024,479.069,242.767,477.802,241.21,477.783z"/>
								</g>
							</g>
							<g>
								<path style="fill:#570B1D;" d="M230.313,477.782h-1.048v8.677h1.048c0.164,0,0.297-0.133,0.297-0.297v-8.084
									C230.609,477.914,230.477,477.782,230.313,477.782z"/>
							</g>
							<g>
								<path style="fill:#570B1D;" d="M239.663,478.078v8.084c0,0.163,0.133,0.297,0.297,0.297h1.048v-8.677h-1.048
									C239.796,477.782,239.663,477.914,239.663,478.078z"/>
							</g>
						</g>
					</g>
					<g>
						<g>
							<g>
								<path style="fill:#570B1D;" d="M334.897,475.143c-0.315-2.553-2.402-4.588-4.96-4.854c-1.657-0.172-3.188,0.386-4.314,1.392
									c-0.188,0.168-0.437,0.253-0.689,0.249l-6.032-0.092c-0.253-0.004-0.499-0.096-0.682-0.27
									c-1.094-1.04-2.607-1.645-4.269-1.524c-2.565,0.187-4.713,2.158-5.107,4.699c-0.233,1.504,0.143,2.916,0.912,4.039
									l-0.073,4.785l-0.015,0.98l-0.006,0.399l-0.013,0.823c-0.016,1.021,0.799,1.861,1.82,1.877l0.971,0.015
									c0.888,0.014,1.66-0.606,1.839-1.476l0.414-1.161l0.141-0.397l0.347-0.975l0.971-2.726c0.554-0.186,1.068-0.456,1.529-0.795
									c0.277-0.204,0.612-0.316,0.956-0.311l6.315,0.097c0.345,0.005,0.675,0.128,0.946,0.34c0.451,0.353,0.957,0.639,1.504,0.841
									l0.886,2.754l0.317,0.985l0.129,0.401l0.378,1.174c0.152,0.875,0.905,1.518,1.793,1.532l0.971,0.015
									c1.021,0.016,1.861-0.799,1.877-1.82l0.013-0.823l0.006-0.399l0.015-0.98l0.073-4.785
									C334.665,478.053,335.084,476.654,334.897,475.143z M314.266,479.707c-2.269-0.035-4.08-1.902-4.045-4.171
									c0.035-2.269,1.902-4.08,4.171-4.045c2.269,0.035,4.08,1.902,4.045,4.171C318.402,477.931,316.534,479.741,314.266,479.707z
									"/>
							</g>
						</g>
						<g>
							<g>
								<polygon style="fill:#E4524D;" points="315.411,472.457 313.343,472.425 313.31,474.548 311.187,474.516 311.155,476.585 
									313.278,476.617 313.246,478.741 315.315,478.773 315.347,476.649 317.47,476.682 317.502,474.613 315.379,474.58 								
									"/>
							</g>
						</g>
						<g>
							<g>
								<g>
									<g>
										<path style="fill:#FFFFFF;" d="M329.823,471.625c-0.711-0.011-1.297,0.557-1.308,1.269
											c-0.011,0.712,0.557,1.297,1.268,1.308c0.711,0.011,1.297-0.557,1.308-1.269
											C331.102,472.222,330.534,471.636,329.823,471.625z"/>
									</g>
								</g>
								<g>
									<path style="fill:#FFFFFF;" d="M329.749,476.417c-0.711-0.011-1.297,0.557-1.308,1.269
										c-0.011,0.712,0.557,1.297,1.268,1.308c0.711,0.011,1.297-0.557,1.308-1.268
										C331.029,477.013,330.461,476.428,329.749,476.417z"/>
								</g>
							</g>
						</g>
						<g>
							<g>
								<g>
									<path style="fill:#FFFFFF;" d="M327.39,473.984c-0.711-0.011-1.297,0.557-1.308,1.268
										c-0.011,0.711,0.557,1.297,1.268,1.308c0.711,0.011,1.297-0.557,1.308-1.268
										C328.67,474.581,328.102,473.995,327.39,473.984z"/>
								</g>
								<g>
									<path style="fill:#FFFFFF;" d="M332.182,474.058c-0.712-0.011-1.297,0.557-1.308,1.268
										c-0.011,0.712,0.557,1.297,1.269,1.308c0.711,0.011,1.297-0.557,1.308-1.268
										C333.461,474.655,332.893,474.069,332.182,474.058z"/>
								</g>
							</g>
						</g>
					</g>
					<g>
						<path style="fill:#570B1D;" d="M360.675,487.886L360.675,487.886c-0.383,0-0.725-0.257-0.831-0.625l-5.099-17.579
							c-0.064-0.222-0.039-0.456,0.073-0.659c0.111-0.203,0.295-0.35,0.517-0.414l13.344-3.871c0.079-0.023,0.16-0.034,0.241-0.034
							c0.383,0,0.725,0.257,0.831,0.625l5.099,17.579c0.065,0.222,0.039,0.456-0.073,0.659c-0.111,0.203-0.295,0.35-0.517,0.414
							l-13.344,3.871C360.838,487.875,360.757,487.886,360.675,487.886z"/>
						<path style="fill:#FFFFFF;" d="M368.81,467.01l-12.299,3.568l-0.071,0.021l4.258,14.68l12.299-3.568l0.071-0.021
							L368.81,467.01z M360.799,485.094l-4.176-14.396l12.086-3.506l4.176,14.396L360.799,485.094z"/>
						<g>
							<g>
								
									<rect x="358.918" y="469.145" transform="matrix(0.9604 -0.2786 0.2786 0.9604 -118.215 120.4764)" style="fill:#FFFFFF;" width="11.672" height="13.997"/>
							</g>
						</g>
						<g>
							<g>
								<path style="fill:#E4524D;" d="M367.91,484.528c0.107,0.369-0.105,0.754-0.474,0.861c-0.369,0.107-0.754-0.105-0.861-0.474
									c-0.107-0.369,0.105-0.754,0.474-0.861C367.417,483.947,367.803,484.159,367.91,484.528z"/>
							</g>
						</g>
						<g>
							<g>
								
									<rect x="362.721" y="478.626" transform="matrix(0.4821 -0.8761 0.8761 0.4821 -233.4494 566.9099)" style="fill:#570B1D;" width="0.148" height="4.584"/>
							</g>
						</g>
						<g>
							<g>
								
									<rect x="362.959" y="477.106" transform="matrix(0.4821 -0.8761 0.8761 0.4821 -232.8959 566.863)" style="fill:#570B1D;" width="0.148" height="6.64"/>
							</g>
						</g>
					</g>
					<g>
						<g>
							<g>
								<g>
									<path style="fill:#E4524D;" d="M286.518,466.962h-0.821h-7.448h-0.546h-4.733h-2.03h-0.821
										c-0.581,0-1.053,0.472-1.053,1.053v0.82v19.052v0.82c0,0.582,0.472,1.053,1.053,1.053h0.821h2.03h4.733h0.546h7.448h0.821
										c0.582,0,1.053-0.471,1.053-1.053v-0.82v-19.052v-0.82C287.571,467.433,287.1,466.962,286.518,466.962z"/>
								</g>
							</g>
						</g>
						<g>
							<path style="fill:#FFFFFF;" d="M271.322,466.964v23.209c0.008,0.001,0.015,0.002,0.022,0.002l1.208,0v-23.213h-1.208
								C271.337,466.962,271.33,466.963,271.322,466.964z"/>
						</g>
						<g>
							<g>
								<g>
									<path style="fill:#570B1D;" d="M284.758,479.084h-10.611v-7.33h10.611V479.084z"/>
								</g>
							</g>
						</g>
						<g>
							<g>
								<polygon style="fill:#570B1D;" points="282.435,471.029 282.983,470.478 283.95,469.505 284.913,470.483 285.457,471.036 
									285.468,466.594 282.446,466.594 								"/>
							</g>
						</g>
					</g>
				</g>
				<g>
					<g>
						<g>
							
								<text transform="matrix(1 0 0 1 229.6244 447.1828)" style="fill:#570B1D; font-family:'Lato-Semibold'; font-size:10.4402px; letter-spacing:1;">HOBBIES</text>
						</g>
					</g>
				</g>
				<g>
					<path style="fill:none;stroke:#E4524D;stroke-width:0.75;stroke-miterlimit:10;" d="M306.971,452.975h-83.643
						c-5.151,0-9.327-4.176-9.327-9.327l0,0c0-5.151,4.176-9.327,9.327-9.327h83.643c5.151,0,9.327,4.176,9.327,9.327l0,0
						C316.298,448.799,312.123,452.975,306.971,452.975z"/>
					<path style="opacity:0.2;fill:#E4524D;" d="M214.001,443.648c0-5.151,4.704-9.327,10.507-9.327h81.282
						c5.803,0,10.507,4.176,10.507,9.327"/>
				</g>
			</g>
			<g>
				<g>
					<g>
						<g>
							<rect x="228.885" y="187.028" style="fill:none;" width="149.922" height="15.121"/>
							<text transform="matrix(1 0 0 1 228.8861 194.1779)"><tspan x="0" y="0" style="fill:#4A2939; font-family:'Lato-Bold'; font-size:9.6225px;">Lorem ipsum dolor </tspan><tspan x="94.976" y="0" style="fill:#E4524D; font-family:'Lato-Bold'; font-size:9.6225px;">(YY-YY) </tspan></text>
						</g>
						<text transform="matrix(1 0 0 1 228.8851 204.1535)" style="fill:#949594; font-family:'Lato-Italic'; font-size:6.8732px;">Lorem ipsum dolor sit amet, consectetuer. </text>
					</g>
					<g>
						<g>
							<rect x="228.885" y="217.324" style="fill:none;" width="149.922" height="15.121"/>
							<text transform="matrix(1 0 0 1 228.8861 224.4738)"><tspan x="0" y="0" style="fill:#4A2939; font-family:'Lato-Bold'; font-size:9.6225px;">Lorem ipsum dolor </tspan><tspan x="94.976" y="0" style="fill:#E4524D; font-family:'Lato-Bold'; font-size:9.6225px;">(YY-YY) </tspan></text>
						</g>
						<text transform="matrix(1 0 0 1 228.8851 234.4494)" style="fill:#949594; font-family:'Lato-Italic'; font-size:6.8732px;">Lorem ipsum dolor sit amet, consectetuer. </text>
					</g>
					<g>
						<g>
							<rect x="228.885" y="247.782" style="fill:none;" width="149.922" height="15.121"/>
							<text transform="matrix(1 0 0 1 228.8861 254.9318)"><tspan x="0" y="0" style="fill:#4A2939; font-family:'Lato-Bold'; font-size:9.6225px;">Lorem ipsum dolor </tspan><tspan x="94.976" y="0" style="fill:#E4524D; font-family:'Lato-Bold'; font-size:9.6225px;">(YY-YY) </tspan></text>
						</g>
						<text transform="matrix(1 0 0 1 228.8851 264.9074)" style="fill:#949594; font-family:'Lato-Italic'; font-size:6.8732px;">Lorem ipsum dolor sit amet, consectetuer. </text>
					</g>
				</g>
				<g>
					<g>
						<g>
							
								<text transform="matrix(1 0 0 1 230.2513 167.9255)" style="fill:#570B1D; font-family:'Lato-Semibold'; font-size:10.4402px; letter-spacing:1;">EDUCATION</text>
						</g>
					</g>
				</g>
				<g>
					<path style="fill:none;stroke:#E4524D;stroke-width:0.75;stroke-miterlimit:10;" d="M306.971,173.929h-83.643
						c-5.151,0-9.327-4.176-9.327-9.327l0,0c0-5.151,4.176-9.327,9.327-9.327h83.643c5.151,0,9.327,4.176,9.327,9.327l0,0
						C316.298,169.753,312.123,173.929,306.971,173.929z"/>
					<path style="opacity:0.2;fill:#E4524D;" d="M214.001,164.602c0-5.151,4.704-9.327,10.507-9.327h81.282
						c5.803,0,10.507,4.176,10.507,9.327"/>
				</g>
			</g>
			<g>
				<g>
					<g>
						<path style="fill:none;stroke:#E4524D;stroke-width:0.75;stroke-miterlimit:10;" d="M306.971,311.394h-83.643
							c-5.151,0-9.327-4.176-9.327-9.327l0,0c0-5.151,4.176-9.327,9.327-9.327h83.643c5.151,0,9.327,4.176,9.327,9.327l0,0
							C316.298,307.218,312.123,311.394,306.971,311.394z"/>
						<path style="opacity:0.2;fill:#E4524D;" d="M214.001,302.067c0-5.151,4.704-9.327,10.507-9.327h81.282
							c5.803,0,10.507,4.176,10.507,9.327"/>
					</g>
					<g>
						<g>
							<g>
								
									<text transform="matrix(1 0 0 1 229.6244 306.3947)" style="fill:#570B1D; font-family:'Lato-Semibold'; font-size:10.4402px; letter-spacing:1;">EXPERIENCE</text>
							</g>
						</g>
					</g>
					<g>
						<g>
							<g>
								<rect x="228.885" y="330.687" style="fill:none;" width="149.922" height="15.121"/>
								<text transform="matrix(1 0 0 1 228.8861 337.8371)"><tspan x="0" y="0" style="fill:#4A2939; font-family:'Lato-Bold'; font-size:9.6225px;">Lorem ipsum dolor </tspan><tspan x="94.976" y="0" style="fill:#E4524D; font-family:'Lato-Bold'; font-size:9.6225px;">(YY-YY) </tspan></text>
							</g>
							<g>
								
									<text transform="matrix(1 0 0 1 228.8851 347.8693)" style="fill:#949594; font-family:'Lato-Italic'; font-size:6.8732px;">Lorem ipsum dolor sit amet, consectetuer. </text>
							</g>
						</g>
						<g>
							<g>
								<rect x="228.885" y="360.983" style="fill:none;" width="149.922" height="15.121"/>
								<text transform="matrix(1 0 0 1 228.8861 368.133)"><tspan x="0" y="0" style="fill:#4A2939; font-family:'Lato-Bold'; font-size:9.6225px;">Lorem ipsum dolor </tspan><tspan x="94.976" y="0" style="fill:#E4524D; font-family:'Lato-Bold'; font-size:9.6225px;">(YY-YY) </tspan></text>
							</g>
							<g>
								
									<text transform="matrix(1 0 0 1 228.8851 378.1662)" style="fill:#949594; font-family:'Lato-Italic'; font-size:6.8732px;">Lorem ipsum dolor sit amet, consectetuer. </text>
							</g>
						</g>
						<g>
							<g>
								<rect x="228.885" y="391.441" style="fill:none;" width="149.922" height="15.121"/>
								<text transform="matrix(1 0 0 1 228.8861 398.591)"><tspan x="0" y="0" style="fill:#4A2939; font-family:'Lato-Bold'; font-size:9.6225px;">Lorem ipsum dolor </tspan><tspan x="94.976" y="0" style="fill:#E4524D; font-family:'Lato-Bold'; font-size:9.6225px;">(YY-YY) </tspan></text>
							</g>
							<g>
								
									<text transform="matrix(1 0 0 1 228.8851 408.6242)" style="fill:#949594; font-family:'Lato-Italic'; font-size:6.8732px;">Lorem ipsum dolor sit amet, consectetuer. </text>
							</g>
						</g>
					</g>
				</g>
			</g>
			<g>
				<g>
					<text transform="matrix(1 0 0 1 202.0472 524.3498)" style="fill:#570B1D; font-family:'Lato-Regular'; font-size:8.2479px;">Lorem ipsum</text>
				</g>
				<g>
					<text transform="matrix(1 0 0 1 202.0472 540.3869)" style="fill:#570B1D; font-family:'Lato-Regular'; font-size:8.2479px;">Lorem ipsum</text>
				</g>
				<g>
					<text transform="matrix(1 0 0 1 338.1244 524.3488)" style="fill:#570B1D; font-family:'Lato-Regular'; font-size:8.2479px;">Lorem ipsum</text>
				</g>
				<g>
					<text transform="matrix(1 0 0 1 338.1244 540.3869)" style="fill:#570B1D; font-family:'Lato-Regular'; font-size:8.2479px;">Lorem ipsum</text>
				</g>
				<g>
					<path style="fill:#570B1D;" d="M168.166,525.786h-26.92c-1.898,0-3.437-1.539-3.437-3.437l0,0c0-1.898,1.539-3.437,3.437-3.437
						h26.92V525.786z"/>
					<path style="fill:none;stroke:#570B1D;stroke-miterlimit:10;" d="M188.843,525.786h-47.597c-1.89,0-3.437-1.547-3.437-3.437
						l0,0c0-1.89,1.546-3.437,3.437-3.437h47.597c1.89,0,3.437,1.547,3.437,3.437l0,0
						C192.28,524.24,190.733,525.786,188.843,525.786z"/>
				</g>
				<g>
					<path style="fill:#E4524D;" d="M184.977,540.387h-43.731c-1.898,0-3.437-1.539-3.437-3.437l0,0
						c0-1.898,1.539-3.437,3.437-3.437h43.731V540.387z"/>
					<path style="fill:#570B1D;" d="M188.843,540.387h-47.597c-1.89,0-3.437-1.547-3.437-3.437l0,0c0-1.89,1.546-3.437,3.437-3.437
						h47.597c1.89,0,3.437,1.547,3.437,3.437l0,0C192.28,538.84,190.733,540.387,188.843,540.387z"/>
				</g>
				<g>
					<path style="fill:#570B1D;" d="M303.029,525.786h-27.837c-1.898,0-3.437-1.539-3.437-3.437l0,0
						c0-1.898,1.539-3.437,3.437-3.437h27.837V525.786z"/>
					<path style="fill:none;stroke:#570B1D;stroke-miterlimit:10;" d="M322.79,525.786h-47.597c-1.89,0-3.437-1.547-3.437-3.437l0,0
						c0-1.89,1.546-3.437,3.437-3.437h47.597c1.89,0,3.437,1.547,3.437,3.437l0,0C326.226,524.24,324.68,525.786,322.79,525.786z"/>
				</g>
				<g>
					<path style="fill:#570B1D;" d="M322.79,541.142h-47.597c-1.898,0-3.437-1.539-3.437-3.437l0,0c0-1.898,1.539-3.437,3.437-3.437
						h47.597c1.898,0,3.437,1.539,3.437,3.437l0,0C326.226,539.603,324.688,541.142,322.79,541.142z"/>
					<path style="fill:none;stroke:#570B1D;stroke-miterlimit:10;" d="M322.79,541.142h-47.597c-1.89,0-3.437-1.546-3.437-3.437l0,0
						c0-1.89,1.546-3.437,3.437-3.437h47.597c1.89,0,3.437,1.547,3.437,3.437l0,0C326.226,539.595,324.68,541.142,322.79,541.142z"
						/>
				</g>
			</g>
			<g>
				<g>
					<path style="fill:none;stroke:#E4524D;stroke-width:0.75;stroke-miterlimit:10;" d="M121.21,173.929H37.567
						c-5.151,0-9.327-4.176-9.327-9.327l0,0c0-5.151,4.176-9.327,9.327-9.327h83.643c5.151,0,9.327,4.176,9.327,9.327l0,0
						C130.537,169.753,126.361,173.929,121.21,173.929z"/>
					<path style="opacity:0.2;fill:#E4524D;" d="M28.24,164.602c0-5.151,4.704-9.327,10.507-9.327h81.282
						c5.803,0,10.507,4.176,10.507,9.327"/>
				</g>
				<g>
					<g>
						<text transform="matrix(1 0 0 1 45.0648 194.4611)"><tspan x="0" y="0" style="fill:#570B1D; font-family:'Lato-Bold'; font-size:8.2479px;">Address</tspan><tspan x="0" y="18.695" style="fill:#570B1D; font-family:'Lato-Bold'; font-size:8.2479px;">Phone number</tspan><tspan x="0" y="37.391" style="fill:#570B1D; font-family:'Lato-Bold'; font-size:8.2479px;">E-mail address</tspan></text>
					</g>
					<g>
						<g>
							<g>
								
									<text transform="matrix(1 0 0 1 44.6112 167.925)" style="fill:#570B1D; font-family:'Lato-Semibold'; font-size:10.4402px; letter-spacing:1;">CONTACT</text>
							</g>
						</g>
					</g>
				</g>
			</g>
			<g>
				<g>
					<g>
						<rect x="44.611" y="280.861" style="fill:none;" width="112.574" height="84.479"/>
						<text transform="matrix(1 0 0 1 44.6112 285.968)"><tspan x="0" y="0" style="fill:#4A2939; font-family:'Lato-Bold'; font-size:6.8732px;">Lorem ipsum dolor sit amet, </tspan><tspan x="0" y="8.248" style="fill:#4A2939; font-family:'Lato-Bold'; font-size:6.8732px;">consectetuer adipiscing elit, </tspan><tspan x="0" y="16.496" style="fill:#4A2939; font-family:'Lato-Bold'; font-size:6.8732px;">sed diam nonummy nibh </tspan><tspan x="0" y="24.744" style="fill:#4A2939; font-family:'Lato-Bold'; font-size:6.8732px;">euismod. </tspan><tspan x="0" y="41.239" style="fill:#4A2939; font-family:'Lato-Bold'; font-size:6.8732px;">Tincidunt ut laoreet dolore </tspan><tspan x="0" y="49.487" style="fill:#4A2939; font-family:'Lato-Bold'; font-size:6.8732px;">magna aliquam erat volutpat. </tspan><tspan x="0" y="57.735" style="fill:#4A2939; font-family:'Lato-Bold'; font-size:6.8732px;">Ut wisi enim ad minim veniam, </tspan><tspan x="0" y="65.983" style="fill:#4A2939; font-family:'Lato-Bold'; font-size:6.8732px;">quis nostrud exerci tation. </tspan></text>
					</g>
					<g>
						<g>
							<g>
								
									<text transform="matrix(1 0 0 1 45.2972 262.4641)" style="fill:#570B1D; font-family:'Lato-Semibold'; font-size:10.4402px; letter-spacing:1;">ABOUT ME</text>
							</g>
						</g>
					</g>
					<g>
						<path style="fill:none;stroke:#E4524D;stroke-width:0.75;stroke-miterlimit:10;" d="M123.752,267.905H35.025
							c-3.747,0-6.785-3.038-6.785-6.785v-5.084c0-3.747,3.038-6.785,6.785-6.785h88.727c3.747,0,6.785,3.038,6.785,6.785v5.084
							C130.537,264.867,127.499,267.905,123.752,267.905z"/>
						<path style="opacity:0.2;fill:#E4524D;" d="M28.24,258.578c0-5.151,4.704-9.327,10.507-9.327h81.282
							c5.803,0,10.507,4.176,10.507,9.327"/>
					</g>
				</g>
			</g>
			<g>
				<g>
					<g>
						<text transform="matrix(1 0 0 1 44.6112 426.5187)"><tspan x="0" y="0" style="fill:#570B1D; font-family:'Lato-Bold'; font-size:8.2479px;">English</tspan><tspan x="0" y="18.695" style="fill:#570B1D; font-family:'Lato-Bold'; font-size:8.2479px;">Spanish</tspan><tspan x="0" y="37.391" style="fill:#570B1D; font-family:'Lato-Bold'; font-size:8.2479px;">French</tspan></text>
					</g>
					<g>
						<path style="fill:#570B1D;" d="M94.437,422.88c0,2.043-1.656,3.699-3.7,3.699c-2.043,0-3.699-1.656-3.699-3.699
							c0-2.043,1.656-3.7,3.699-3.7C92.781,419.18,94.437,420.836,94.437,422.88z"/>
						<path style="fill:#570B1D;" d="M108.298,422.88c0,2.043-1.656,3.699-3.699,3.699c-2.043,0-3.7-1.656-3.7-3.699
							c0-2.043,1.656-3.7,3.7-3.7C106.641,419.18,108.298,420.836,108.298,422.88z"/>
						<path style="fill:#570B1D;" d="M122.159,422.88c0,2.043-1.656,3.699-3.7,3.699c-2.043,0-3.7-1.656-3.7-3.699
							c0-2.043,1.656-3.7,3.7-3.7C120.503,419.18,122.159,420.836,122.159,422.88z"/>
						<path style="fill:#570B1D;" d="M136.02,422.88c0,2.043-1.656,3.699-3.7,3.699c-2.043,0-3.699-1.656-3.699-3.699
							c0-2.043,1.656-3.7,3.699-3.7C134.364,419.18,136.02,420.836,136.02,422.88z"/>
						<path style="fill:#570B1D;" d="M149.881,422.88c0,2.043-1.656,3.699-3.699,3.699c-2.043,0-3.7-1.656-3.7-3.699
							c0-2.043,1.656-3.7,3.7-3.7C148.225,419.18,149.881,420.836,149.881,422.88z"/>
					</g>
					<g>
						<path style="fill:#570B1D;" d="M94.437,442.388c0,2.043-1.656,3.7-3.7,3.7c-2.043,0-3.699-1.656-3.699-3.7
							c0-2.043,1.656-3.699,3.699-3.699C92.781,438.688,94.437,440.344,94.437,442.388z"/>
						<path style="fill:#570B1D;" d="M108.298,442.388c0,2.043-1.656,3.7-3.699,3.7c-2.043,0-3.7-1.656-3.7-3.7
							c0-2.043,1.656-3.699,3.7-3.699C106.641,438.688,108.298,440.344,108.298,442.388z"/>
						<path style="fill:#570B1D;" d="M122.159,442.388c0,2.043-1.656,3.7-3.7,3.7c-2.043,0-3.7-1.656-3.7-3.7
							c0-2.043,1.656-3.699,3.7-3.699C120.503,438.688,122.159,440.344,122.159,442.388z"/>
						<path style="fill:#570B1D;" d="M136.02,442.388c0,2.043-1.656,3.7-3.7,3.7c-2.043,0-3.699-1.656-3.699-3.7
							c0-2.043,1.656-3.699,3.699-3.699C134.364,438.688,136.02,440.344,136.02,442.388z"/>
						<g>
							<path style="fill:#570B1D;" d="M146.182,439.688c1.488,0,2.699,1.211,2.699,2.699c0,1.489-1.211,2.7-2.699,2.7
								c-1.489,0-2.7-1.211-2.7-2.7C143.482,440.899,144.693,439.688,146.182,439.688 M146.182,438.688
								c-2.043,0-3.7,1.656-3.7,3.699c0,2.043,1.656,3.7,3.7,3.7c2.043,0,3.699-1.656,3.699-3.7
								C149.881,440.344,148.225,438.688,146.182,438.688L146.182,438.688z"/>
						</g>
					</g>
					<g>
						<path style="fill:#570B1D;" d="M94.437,461.896c0,2.043-1.656,3.7-3.7,3.7c-2.043,0-3.699-1.656-3.699-3.7
							s1.656-3.7,3.699-3.7C92.781,458.196,94.437,459.852,94.437,461.896z"/>
						<path style="fill:#570B1D;" d="M108.298,461.896c0,2.043-1.656,3.7-3.699,3.7c-2.043,0-3.7-1.656-3.7-3.7s1.656-3.7,3.7-3.7
							C106.641,458.196,108.298,459.852,108.298,461.896z"/>
						<path style="fill:#570B1D;" d="M122.159,461.896c0,2.043-1.656,3.7-3.7,3.7c-2.043,0-3.7-1.656-3.7-3.7s1.656-3.7,3.7-3.7
							C120.503,458.196,122.159,459.852,122.159,461.896z"/>
						<g>
							<path style="fill:#570B1D;" d="M132.32,459.196c1.489,0,2.7,1.211,2.7,2.7c0,1.488-1.211,2.7-2.7,2.7
								c-1.488,0-2.699-1.211-2.699-2.7C129.621,460.407,130.832,459.196,132.32,459.196 M132.32,458.196
								c-2.043,0-3.699,1.656-3.699,3.7s1.656,3.7,3.699,3.7c2.043,0,3.7-1.656,3.7-3.7S134.364,458.196,132.32,458.196
								L132.32,458.196z"/>
						</g>
						<g>
							<path style="fill:#570B1D;" d="M146.182,459.196c1.488,0,2.699,1.211,2.699,2.7c0,1.488-1.211,2.7-2.699,2.7
								c-1.489,0-2.7-1.211-2.7-2.7C143.482,460.407,144.693,459.196,146.182,459.196 M146.182,458.196c-2.043,0-3.7,1.656-3.7,3.7
								s1.656,3.7,3.7,3.7c2.043,0,3.699-1.656,3.699-3.7S148.225,458.196,146.182,458.196L146.182,458.196z"/>
						</g>
					</g>
				</g>
				<g>
					<g>
						<path style="fill:none;stroke:#E4524D;stroke-width:0.75;stroke-miterlimit:10;" d="M121.21,400.768H37.567
							c-5.151,0-9.327-4.176-9.327-9.327l0,0c0-5.151,4.176-9.327,9.327-9.327h83.643c5.151,0,9.327,4.176,9.327,9.327l0,0
							C130.537,396.592,126.361,400.768,121.21,400.768z"/>
						<path style="opacity:0.2;fill:#E4524D;" d="M28.24,391.441c0-5.151,4.704-9.327,10.507-9.327h81.282
							c5.803,0,10.507,4.176,10.507,9.327"/>
					</g>
					<g>
						<g>
							<g>
								<g>
									
										<text transform="matrix(1 0 0 1 45.2972 394.9094)" style="fill:#570B1D; font-family:'Lato-Semibold'; font-size:10.4402px; letter-spacing:1;">LANGUAGES</text>
								</g>
							</g>
						</g>
					</g>
				</g>
			</g>
			<g>
				<g>
					<path style="fill:none;stroke:#E4524D;stroke-width:0.75;stroke-miterlimit:10;" d="M93.863,537.567H37.567
						c-5.151,0-9.327-4.176-9.327-9.327l0,0c0-5.151,4.176-9.327,9.327-9.327h56.296c5.151,0,9.327,4.176,9.327,9.327l0,0
						C103.19,533.391,99.014,537.567,93.863,537.567z"/>
					<path style="opacity:0.2;fill:#E4524D;" d="M28.24,528.24c0-5.151,3.447-9.327,7.699-9.327h59.553
						c4.252,0,7.698,4.176,7.698,9.327"/>
				</g>
				<g>
					<g>
						<g>
							
								<text transform="matrix(1 0 0 1 45.2972 532.1916)" style="fill:#570B1D; font-family:'Lato-Semibold'; font-size:10.4402px; letter-spacing:1;">SKILLS</text>
						</g>
					</g>
				</g>
			</g>
		</g>
		<g>
			<g>
				<path style="fill:#FCF0F3;" d="M209.901,586.672c-4.079,0.026-8.177-3.179-8.175-8.228c0.002-4.644,3.577-8.231,8.249-8.212
					c5.058,0.021,8.246,4.143,8.2,8.313C218.124,583.05,214.404,586.737,209.901,586.672z M208.671,578.671c0,1.755,0,3.428,0,5.094
					c0.679,0.093,1.649,0.071,2.04-0.05c0-1.659,0-3.332,0-5.014c0.524-0.083,1.017,0.034,1.515-0.083
					c0.065-0.67,0.129-1.323,0.198-2.038c-0.561,0-1.078,0-1.637,0c0-0.274-0.004-0.491,0.001-0.708
					c0.01-0.477,0.118-0.591,0.607-0.611c0.318-0.013,0.636-0.002,1.006-0.002c-0.01-0.603,0.021-1.169-0.02-1.756
					c-0.651,0-1.246-0.027-1.838,0.006c-0.969,0.055-1.668,0.664-1.852,1.601c-0.058,0.296-0.027,0.609-0.046,0.914
					c-0.012,0.18,0.061,0.373-0.071,0.55c-0.294,0.058-0.603-0.038-0.954,0.058c-0.002,0.668-0.023,1.333,0.018,2.04
					C207.992,578.671,208.291,578.671,208.671,578.671z"/>
				<path style="fill:#FCF0F3;" d="M177.959,570.258c4.559-0.036,8.28,3.819,8.188,8.373c-0.085,4.24-3.528,8.076-8.261,8.054
					c-4.451-0.021-8.237-3.505-8.188-8.28C169.751,573.329,173.886,570.187,177.959,570.258z M182.741,575.084
					c-0.265,0.109-0.468,0.184-0.663,0.276c-0.348,0.162-0.629,0.149-0.971-0.103c-0.636-0.469-1.363-0.496-2.068-0.125
					c-0.723,0.38-1.092,0.991-1.084,1.82c0.001,0.128,0.061,0.274-0.089,0.402c-1.639-0.098-2.982-0.838-4.106-2.067
					c-0.478,1.041-0.242,1.883,0.582,2.639c-0.341,0.035-0.57-0.155-0.86-0.163c0.104,0.976,0.601,1.59,1.535,1.915
					c-0.287,0.185-0.55,0.025-0.781,0.105c0.39,0.833,0.67,1.051,1.801,1.395c-0.865,0.623-1.798,0.873-2.833,0.802
					c0.028,0.041,0.04,0.081,0.066,0.095c1.399,0.763,2.876,0.973,4.429,0.605c2.439-0.577,4.203-2.78,4.323-5.409
					c0.014-0.304,0.104-0.5,0.334-0.68c0.223-0.175,0.419-0.385,0.608-0.673c-0.353,0.028-0.63,0.244-1.034,0.171
					C182.323,575.825,182.568,575.529,182.741,575.084z"/>
				<g>
					<path style="fill:#FCF0F3;" d="M241.61,586.672c-4.495,0.038-8.207-3.686-8.215-8.195c-0.007-4.161,3.196-8.243,8.226-8.246
						c4.721-0.003,8.204,3.676,8.212,8.205C249.841,583.395,245.794,586.724,241.61,586.672z M241.641,574.086
						c-0.781,0-1.562,0-2.343,0c-0.034,0-0.068,0.002-0.102,0c-0.997-0.059-1.951,0.712-1.948,1.956
						c0.003,1.613-0.007,3.226,0.003,4.839c0.007,1.168,0.785,1.962,1.943,1.972c1.613,0.014,3.226,0.014,4.839,0
						c1.162-0.01,1.935-0.809,1.937-1.972c0.003-1.596-0.024-3.193,0.009-4.788c0.023-1.101-0.77-2.059-1.995-2.013
						C243.204,574.109,242.422,574.086,241.641,574.086z"/>
					<path style="fill:#FCF0F3;" d="M245.209,578.479c0,0.799,0.003,1.597-0.001,2.396c-0.004,0.807-0.381,1.201-1.171,1.204
						c-1.614,0.007-3.229,0.003-4.843,0c-0.151,0-0.309-0.006-0.453-0.047c-0.433-0.125-0.717-0.511-0.719-1
						c-0.007-1.716-0.009-3.432-0.001-5.149c0.003-0.589,0.424-1.022,1.017-1.064c0.304-0.022,0.611-0.006,0.917-0.006
						c1.291,0,2.583,0,3.874,0c0.119,0,0.238-0.007,0.357,0.003c0.597,0.05,1.006,0.462,1.016,1.063
						c0.015,0.866,0.004,1.733,0.004,2.6C245.207,578.479,245.208,578.479,245.209,578.479z M239.356,578.438
						c-0.006,1.269,0.983,2.284,2.235,2.293c1.255,0.01,2.268-0.995,2.286-2.249c0.017-1.14-0.853-2.283-2.242-2.297
						C240.137,576.17,239.309,577.447,239.356,578.438z M244.073,576.57c0.307-0.006,0.504-0.213,0.495-0.521
						c-0.008-0.28-0.254-0.521-0.523-0.512c-0.268,0.009-0.506,0.264-0.502,0.54C243.547,576.367,243.772,576.576,244.073,576.57z"
						/>
					<path style="fill:#FCF0F3;" d="M241.605,576.945c0.661-0.062,1.523,0.503,1.54,1.496c0.015,0.851-0.703,1.571-1.549,1.56
						c-0.826-0.011-1.523-0.719-1.519-1.544C240.081,577.611,240.752,576.947,241.605,576.945z"/>
				</g>
			</g>
		</g>
		<g>
			<g>
				<g>
					<g>
						<path style="fill:#570B1D;" d="M122.882,32.926c-24.73-24.73-64.968-24.73-89.696,0
							c-11.98,11.979-18.577,27.907-18.577,44.848c0,16.026,5.904,31.144,16.682,42.872l3.838,0.032
							c-11.46-11.46-17.771-26.697-17.771-42.904c0-16.207,6.311-31.444,17.771-42.904c11.46-11.46,26.697-17.772,42.904-17.772
							s31.444,6.312,42.904,17.772c11.46,11.46,17.771,26.697,17.771,42.904c0,16.207-6.311,31.444-17.771,42.904l3.83-0.008
							c0,0,0.954-1.066,1.546-1.759c9.801-11.465,15.144-25.89,15.144-41.136C141.458,60.833,134.861,44.906,122.882,32.926z"/>
					</g>
					<g>
						<g>
							<circle style="fill:#570B1D;" cx="78.034" cy="77.774" r="52.427"/>
						</g>
					</g>
					<g>
						<path style="fill:#E4524D;" d="M113.437,80.814c-0.014,0.948-0.412,1.952-1.223,2.461c-0.398,0.234-0.88,0.344-1.333,0.44
							c-2.365,0.509-4.743,0.976-7.135,1.402c-0.783,0.137-1.594-0.028-2.227-0.55c-0.165-0.138-0.303-0.289-0.413-0.467v-0.014
							c-0.096-0.124-0.179-0.261-0.247-0.399c-0.083-0.137-0.151-0.289-0.22-0.426c-1.086-2.309-1.649-4.811-1.814-7.354
							c-0.852,1.278-1.031,2.9-1.058,4.399c-0.014,1.457,0.261,2.832,0.261,4.275c0,2.626-6.681,2.873-8.44,3.093
							c-2.681,0.316-5.306,0.357-8,0.481c-3.231,0.151-6.447,0.234-9.664,0.247c-1.169,0-2.35,0.027-3.519,0.014H68.32
							c-0.385,0-0.77,0-1.141-0.014c-1.32-0.027-1.925-0.949-2.64-2.048c-1.072-1.65-1.828-3.519-2.213-5.471
							c-0.11,1.388-0.179,2.763-0.179,4.152c0,0.77,0.014,1.553-0.206,2.296c-0.041,0.138-0.096,0.289-0.206,0.385
							c-0.096,0.096-0.248,0.137-0.385,0.179c-1.031,0.261-2.131,0.357-3.23,0.357c-2.186,0-4.454-0.357-6.488-0.619
							c-1.608-0.206-3.368-0.742-4.729-1.705c-1.21-0.866-2.103-2.062-2.296-3.684c-0.33-2.873,1.65-5.512,2.048-8.385
							c0.344-2.461-0.715-4.399-1.333-6.667c-0.591-2.227-1.072-4.564-1.553-6.832c-1.292-6.241-2.282-12.674-1.251-18.97
							c0.632-3.863,2.103-7.684,4.495-10.805c1.114-1.471,2.461-2.928,4.028-3.918c0.426-0.275,4.633-1.979,4.619-0.632
							c0.041-7.382,7.162-9.98,13.169-11.533c7.024-1.801,14.558-1.925,21.513,0.302c8.193,2.639,15.685,7.533,17.554,16.482
							c0.564,2.626,0.907,5.581,0.77,8.262c-0.11,2.378-0.962,4.784-1.416,7.148c-0.399,2.09-0.715,4.206-0.674,6.337
							c0.041,2.145,0.44,4.303,1.058,6.351c0.605,1.993,0.825,4.083,1.251,6.158c0.536,2.612,1.251,5.21,2.131,7.739
							C111.842,75.659,113.505,78.23,113.437,80.814z"/>
						<path style="fill:#D74341;" d="M102.096,70.6c-0.151,2.79-0.289,5.567-0.44,8.358c-0.096,1.718-0.192,3.45-0.55,5.128
							c-0.096-0.124-0.179-0.261-0.247-0.399c-0.083-0.137-0.151-0.289-0.22-0.426c-1.086-2.309-1.649-4.811-1.814-7.354
							c-0.852,1.278-1.031,2.9-1.058,4.399c-0.014,1.457,0.261,2.832,0.261,4.275c0,2.626-6.681,2.873-8.44,3.093
							c-2.681,0.316-5.306,0.357-8,0.481c-3.231,0.151-6.447,0.234-9.664,0.247c-1.155,0-2.364-0.082-3.519,0.014H68.32
							c-0.385,0-0.77,0-1.141-0.014c-1.32-0.027-1.925-0.949-2.64-2.048c-1.072-1.65-1.828-3.519-2.213-5.471
							c-0.11,1.388-0.179,2.763-0.179,4.152c0,0.77,0.014,1.553-0.206,2.296c-0.041,0.138-0.096,0.289-0.206,0.385
							c-0.096,0.096-0.248,0.137-0.385,0.179c-1.031,0.261-2.131,0.357-3.23,0.357c-0.646-0.302-1.21-0.715-1.608-1.32
							c-0.536-0.825-0.66-1.828-0.77-2.804c-0.536-4.963-1.086-9.939-1.622-14.901c-0.151-1.402-0.303-2.791-0.344-4.193
							c-0.041-1.471,0.055-2.942,0.179-4.413c0.288-3.574,0.729-7.148,1.333-10.681c0.399-2.323,0.784-5.169,2.598-6.818
							c1.924-1.773,3.945-3.533,6.378-4.577c2.158-0.921,4.522-1.155,6.859-1.292c4-0.248,8.083-0.248,11.918,0.866
							c3.849,1.114,7.478,3.464,9.375,6.997c0.784,1.457,1.265,3.079,2.048,4.536c1.581,2.955,4.358,5.127,5.952,8.083
							C102.508,61.583,102.329,66.229,102.096,70.6z"/>
						<g>
							<path style="fill:#F4BCB5;" d="M62.605,95.261c-0.014,0.44,0.151,0.756,0.412,0.99c0.495,0.467,1.375,0.619,2.103,0.715
								c7.217,0.962,14.599,1.911,21.747,0.522c0.701-0.138,1.43-0.302,2.035-0.701c0.193-0.124,0.371-0.261,0.481-0.467
								c0.522-0.921-2.502-4.083-3.038-5.017c-1.114-1.925-1.966-4.014-2.557-6.159c-0.041-0.165-0.083-0.316-0.124-0.481
								c-0.619-2.433-0.839-4.825-0.756-7.231c0.027-1.828,0.233-3.657,0.55-5.526c-3.478-0.866-7.079-1.086-10.64-1.196
								c-0.852-0.027-1.691-0.069-2.543-0.055c-1.691,0.028-1.814,3.808-1.856,6.007c-0.014,0.536-0.014,0.976-0.041,1.237
								c-0.151,1.979-0.316,3.973-0.619,5.938c-0.151,1.031-0.344,2.048-0.577,3.052c-0.44,1.828-1.306,3.409-2.378,4.935
								C64.158,92.732,62.632,94.065,62.605,95.261z"/>
							<path style="fill:#EB8683;" d="M67.76,83.838c3.23,0.742,6.708,1.155,10.338,1.155c1.855,0,3.725-0.11,5.567-0.33
								c-0.619-2.433-0.839-4.825-0.756-7.231c-3.588-0.522-7.258-0.701-10.887-0.784c-1.059-0.014-2.131-0.055-3.203-0.041
								c-0.138,0-0.275,0.014-0.399,0.055c-0.014,0.536-0.014,0.976-0.041,1.237C68.227,79.879,68.062,81.872,67.76,83.838z"/>
						</g>
						<g>
							<path style="fill:#F4BCB5;" d="M55.778,51.658c-0.634-2.022-0.978-4.173-0.978-6.404c0-11.798,9.564-21.361,21.361-21.361
								c5.998,0,11.809,2.579,15.835,7.024c1.981,2.186,3.502,4.78,4.435,7.579c0.48,1.439,0.804,2.93,0.967,4.438
								c0.081,0.748,0.123,1.502,0.202,2.247c0.091,0.853-0.077,1.723-0.031,2.59c0.093,1.769,0.595,3.518,1.472,5.058
								c0.812,1.426,1.603,2.55,2.022,4.171c0.845,3.273,0.647,6.442-0.781,9.494c-1.201,2.568-3.042,4.801-5.217,6.605
								c-4.83,4.005-11.189,5.908-17.409,5.908c-13.331,0-24.138-8.607-24.138-19.225C53.519,56.876,54.332,54.125,55.778,51.658z"
								/>
							<g>
								<g>
									<g>
										<path style="fill:#EF9B9E;" d="M87.452,58.157c0,1.703,1.917,3.083,4.282,3.083s4.282-1.38,4.282-3.083
											c0-1.703-1.917-3.083-4.282-3.083S87.452,56.454,87.452,58.157z"/>
										<path style="fill:#EF9B9E;" d="M60.074,58.328c0,1.703,1.917,3.083,4.282,3.083c2.365,0,4.282-1.38,4.282-3.083
											c0-1.703-1.917-3.083-4.282-3.083C61.991,55.245,60.074,56.625,60.074,58.328z"/>
									</g>
								</g>
								<g>
									<g>
										<path style="fill:#570B1D;" d="M85.328,52.488c0,2.096,1.699,3.795,3.795,3.795c2.096,0,3.795-1.699,3.795-3.795
											c0-2.096-1.699-3.795-3.795-3.795C87.027,48.693,85.328,50.392,85.328,52.488z"/>
										<g>
											<path style="fill:#FFFFFC;" d="M87.743,51.108c0,0.635,0.515,1.15,1.15,1.15c0.635,0,1.15-0.515,1.15-1.15
												c0-0.635-0.515-1.15-1.15-1.15C88.258,49.958,87.743,50.473,87.743,51.108z"/>
											<path style="fill:#FFFFFC;" d="M87.168,52.833c0,0.318,0.257,0.575,0.575,0.575c0.317,0,0.575-0.257,0.575-0.575
												c0-0.318-0.257-0.575-0.575-0.575C87.426,52.258,87.168,52.515,87.168,52.833z"/>
										</g>
									</g>
									<g>
										<path style="fill:#570B1D;" d="M62.667,52.488c0,2.096,1.699,3.795,3.795,3.795c2.096,0,3.795-1.699,3.795-3.795
											c0-2.096-1.699-3.795-3.795-3.795C64.366,48.693,62.667,50.392,62.667,52.488z"/>
										<g>
											<path style="fill:#FFFFFC;" d="M65.082,51.108c0,0.635,0.515,1.15,1.15,1.15s1.15-0.515,1.15-1.15
												c0-0.635-0.515-1.15-1.15-1.15S65.082,50.473,65.082,51.108z"/>
											<path style="fill:#FFFFFC;" d="M64.507,52.833c0,0.318,0.257,0.575,0.575,0.575c0.318,0,0.575-0.257,0.575-0.575
												c0-0.318-0.257-0.575-0.575-0.575C64.765,52.258,64.507,52.515,64.507,52.833z"/>
										</g>
									</g>
								</g>
								<g>
									<g>
										<path style="fill:#EF9B9E;" d="M77.67,56.21c0.542-0.363,1.286-0.01,1.298,0.672c0.014,0.802-0.716,1.167-1.42,1.045
											c-0.62-0.108-0.864,0.846-0.238,0.955c1.36,0.236,2.762-0.615,2.635-2.14c-0.112-1.342-1.66-2.128-2.782-1.375
											C76.638,55.718,77.143,56.563,77.67,56.21L77.67,56.21z"/>
									</g>
								</g>
								<g>
									<path style="fill:#570B1D;" d="M87.121,42.601c-0.814,0.761-0.346,1.835,0.742,1.895c0.471,0.026,0.933-0.123,1.401-0.184
										c0.835-0.11,1.725,0.065,2.448,0.502c0.345,0.209,1.409,0.531,1.359-0.249c-0.022-0.344-0.304-0.606-0.57-0.824
										c-1.362-1.114-3.108-2.122-4.933-1.421C87.402,42.383,87.251,42.48,87.121,42.601z"/>
									<path style="fill:#570B1D;" d="M68.427,42.601c0.814,0.761,0.346,1.835-0.742,1.895c-0.471,0.026-0.933-0.123-1.401-0.184
										c-0.834-0.11-1.725,0.065-2.447,0.502c-0.345,0.209-1.409,0.531-1.359-0.249c0.022-0.344,0.304-0.606,0.57-0.824
										c1.362-1.114,3.107-2.122,4.933-1.421C68.146,42.383,68.297,42.48,68.427,42.601z"/>
								</g>
								<g>
									<g>
										<path style="fill:#570B1D;" d="M77.632,68.434c1.384,0,2.769-0.528,3.823-1.581c0.269-0.269,0.269-0.703,0-0.972
											c-0.269-0.269-0.703-0.269-0.972,0c-1.573,1.572-4.129,1.572-5.703,0c-0.269-0.269-0.703-0.269-0.972,0
											c-0.269,0.269-0.269,0.703,0,0.972C74.863,67.906,76.248,68.434,77.632,68.434z"/>
									</g>
								</g>
							</g>
							<path style="fill:#F4BCB5;" d="M54.877,58.061c-0.41,0.243-0.852,0.333-1.473,0.284c-1.805-0.143-3.493-1.221-4.526-2.686
								c-1.348-1.914-1.714-4.378-1.525-6.711c0.13-1.61,0.61-3.358,1.958-4.248c1.457-0.962,3.492-0.559,4.89,0.487
								c1.47,1.099,2.684,2.774,2.9,4.615c0.095,0.808,0.154,1.62,0.177,2.434c0.027,0.969,0.001,1.953-0.273,2.883
								c-0.254,0.859-0.724,1.651-1.347,2.293C55.386,57.691,55.138,57.907,54.877,58.061z"/>
							<path style="fill:#EF9B9E;" d="M53.103,53.736c0.438-0.779,0.491-1.685,0.474-2.537c-0.072-0.887-0.102-1.666-0.662-2.653
								c-0.274-0.472-1.08-0.969-1.8-0.7c-0.654,0.251-1.044,0.774-1.134,1.37c-0.055,0.539,0,1.047,0.408,1.521
								c0.497,0.508,1.287,0.144,1.292-0.322c-0.321,0.316-0.766,0.112-0.755-0.086c-0.069-0.212-0.009-0.608,0.097-0.857
								c0.102-0.2,0.321-0.381,0.456-0.375c0.096,0.003,0.148,0.003,0.299,0.222c0.159,0.205,0.267,0.541,0.391,0.923
								c0.136,0.366,0.229,0.744,0.352,1.122C52.725,52.132,52.973,52.892,53.103,53.736z"/>
						</g>
						<path style="fill:#E4524D;" d="M60.56,43.333c-0.25,4.435-1.1,8.883-2.046,13.233c-0.708,3.258-1.47,6.505-2.284,9.738
							c-0.329,1.307-0.532,2.548-1.264,3.704c-0.352,0.556-0.772,1.07-1.248,1.524c-0.211,0.202-1.243,0.783-1.298,1.006
							c0.715-2.867,0.792-5.841,0.759-8.781c-0.03-2.731,0.379-5.463,0.565-8.199c0.128-1.883,0.194-3.769,0.197-5.656
							c0.003-2.124-0.147-4.23-1.314-6.064c-1.205-1.894-1.462-2.869-0.743-5.232c0.46-1.511,0.934-3.052,1.861-4.33
							c0.744-1.027,1.745-1.836,2.613-2.762c3.071-3.279,5.039-7.293,9.347-9.147c4.847-2.086,10.464-4.424,15.733-2.459
							c4.071,1.518,8.372,4.209,11.405,7.343c1.312,1.355,2.368,3.02,2.709,4.875c0.139,0.759,0.152,1.57-0.16,2.276
							c-0.42,0.951-1.355,1.569-2.302,1.999c-1.67,0.758-3.233,1.327-5.024,1.71c-6.776,1.453-13.845,1.521-20.647,0.2
							c-3.146-0.611-5.867-2-7.516-4.875C60.599,36.697,60.748,40.011,60.56,43.333z"/>
						<g>
							<path style="fill:#CB3C3B;" d="M92.77,29.11c-2.221-0.375-4.425-0.76-6.639-1.03c-2.214-0.258-4.429-0.464-6.647-0.491
								c-2.216-0.051-4.431,0.076-6.629,0.364l-1.644,0.261l-1.63,0.353l-1.623,0.412c-0.53,0.175-1.066,0.34-1.608,0.498
								c0.5-0.257,1.006-0.508,1.518-0.747l1.575-0.633l1.626-0.498l1.655-0.403c2.225-0.476,4.509-0.634,6.778-0.605
								c2.27,0.053,4.532,0.29,6.749,0.734C88.469,27.756,90.653,28.336,92.77,29.11z"/>
						</g>
						<path style="fill:#EB8263;" d="M44.453,118.039c3.038,2.529,6.365,4.729,9.925,6.53c0.756,0.385,1.526,0.756,2.31,1.1
							c1.636,0.742,3.327,1.388,5.059,1.952c5.128,1.677,10.599,2.584,16.29,2.584c4.633,0,9.128-0.605,13.403-1.732
							c1.581-0.412,3.134-0.907,4.646-1.457c0.88-0.33,1.746-0.674,2.598-1.045c3.134-1.334,6.117-2.983,8.894-4.88
							c-0.756-5.265-1.677-10.901-2.392-13.43c-0.866-3.024-1.883-6.639-4.11-8.976c-2.158-2.282-5.65-3.918-8.55-5.073
							c-1.375-0.55-3.079-1.21-4.303-2.062c-1.416-1.004-2.488-1.718-2.749-1.897v-0.014h-0.014
							c-0.027-0.027-0.055-0.041-0.055-0.041c-0.165,0.055-0.344,0.096-0.522,0.151c-2.873,0.55-5.87,0.962-8.853,1.045
							c-0.083,0.014-0.165,0.014-0.247,0.014c-0.069,0-0.151,0-0.234-0.014c-2.983-0.082-5.98-0.495-8.867-1.045
							c-0.165-0.055-0.344-0.096-0.509-0.151c0,0-0.028,0.014-0.069,0.041v0.014c-0.261,0.179-1.333,0.894-2.749,1.897
							c-1.223,0.852-2.928,1.512-4.303,2.062c-2.901,1.155-6.392,2.79-8.55,5.073c-2.227,2.337-3.244,5.952-4.11,8.976
							C45.8,109.695,45.113,113.778,44.453,118.039z"/>
						<path style="fill:#E86B4C;" d="M96.085,127.016c0.88-0.33,1.746-0.674,2.598-1.045c-0.907-4.44-1.553-7.011-1.993-13.925
							C96.566,119.799,96.236,120.349,96.085,127.016z"/>
						<path style="fill:#E86B4C;" d="M54.378,124.569c0.756,0.385,1.526,0.756,2.31,1.1c-0.165-5.581-0.44-6.516-0.563-13.788
							C55.725,118.136,55.148,120.83,54.378,124.569z"/>
					</g>
				</g>
			</g>
			<g>
				<g>
					<g>
						<text transform="matrix(1 0 0 1 185.1605 77.4553)"><tspan x="0" y="0" style="fill:#570B1D; font-family:'Lato-Medium'; font-size:22.5302px; letter-spacing:1;">YOUR </tspan><tspan x="67.635" y="0" style="fill:#E4524D; font-family:'Lato-Medium'; font-size:22.5302px; letter-spacing:1;">NAME</tspan></text>
					</g>
					<g>
						
							<text transform="matrix(1 0 0 1 218.3861 98.4162)" style="fill:#570B1D; font-family:'Lato-Light'; font-size:12.3718px; letter-spacing:2;">JOB TITLE</text>
					</g>
				</g>
			</g>
			<g>
				<path style="fill:#570B1D;" d="M326.937,120.678H193.362c-3.415,0-6.184-2.769-6.184-6.184l0,0c0-3.415,2.769-6.184,6.184-6.184
					h133.574c3.415,0,6.184,2.769,6.184,6.184l0,0C333.12,117.909,330.352,120.678,326.937,120.678z"/>
				<g>
					<text transform="matrix(1 0 0 1 214.3959 117.6823)" style="fill:#FCF0F3; font-family:'Lato-Regular'; font-size:8.2479px;">www.loremipsum.com</text>
				</g>
			</g>
		</g>
	</g>
</g>
</svg>
